<svg class="lds-gear-set" width="84px"  height="84px"  xmlns="http://www.w3.org/2000/svg" xmlns:xlink="http://www.w3.org/1999/xlink" viewBox="0 0 100 100" preserveAspectRatio="xMidYMid" style="background: none;"><g transform="translate(50 50)"> <g transform="translate(-17 -17) scale(0.5)"> <g transform="rotate(4.78541)">
<animateTransform attributeName="transform" type="rotate" values="0;360" keyTimes="0;1" dur="2.5s" begin="0s" repeatCount="indefinite"></animateTransform><path d="M39.68626966596886 -5 L45.68626966596886 -5 L45.68626966596886 5 L39.68626966596886 5 A40 40 0 0 1 38.28889459950419 11.574132811924127 L38.28889459950419 11.574132811924127 L43.770167345359795 14.014552670378928 L39.702800914601795 23.15000724680494 L34.22152816874619 20.709587388350137 A40 40 0 0 1 30.271021813097875 26.146992912970937 L30.271021813097875 26.146992912970937 L34.28580545125102 30.6058618658353 L26.85435719647709 37.297167929423885 L22.839573558323938 32.83829897655952 A40 40 0 0 1 17.01901435160712 36.19880040139164 L17.01901435160712 36.19880040139164 L18.8731163178568 41.90513949916256 L9.362551154905262 44.99530944291203 L7.508449188655577 39.28897034514111 A40 40 0 0 1 0.8242646958319584 39.99150644463403 L0.8242646958319584 39.99150644463403 L0.19709391622603845 45.95863781684366 L-9.7481250374567 44.913353184167136 L-9.12095425785078 38.94622181195749 A40 40 0 0 1 -15.513007814062226 36.86931771216881 L-15.513007814062226 36.86931771216881 L-18.513007814062224 42.06547013487544 L-27.173261851906616 37.06547013487544 L-24.173261851906616 31.869317712168804 A40 40 0 0 1 -29.167940341653406 27.37208900003337 L-29.167940341653406 27.37208900003337 L-34.02204230790309 30.89880051378821 L-39.899894830827826 22.808630570038734 L-35.04579286457814 19.281919056283893 A40 40 0 0 1 -37.77947100175345 13.141977432170185 L-37.77947100175345 13.141977432170185 L-43.648356606156284 14.389447577076744 L-45.72747351433388 4.607971569738684 L-39.858587909931046 3.3605014248321248 A40 40 0 0 1 -39.858587909931046 -3.360501424832097 L-39.858587909931046 -3.360501424832097 L-45.72747351433388 -4.607971569738651 L-43.64835660615629 -14.389447577076712 L-37.77947100175346 -13.141977432170158 A40 40 0 0 1 -35.04579286457815 -19.281919056283886 L-35.04579286457815 -19.281919056283886 L-39.89989483082783 -22.808630570038723 L-34.0220423079031 -30.898800513788203 L-29.167940341653413 -27.372089000033363 A40 40 0 0 1 -24.173261851906638 -31.869317712168787 L-24.173261851906638 -31.869317712168787 L-27.173261851906638 -37.06547013487542 L-18.513007814062256 -42.065470134875426 L-15.513007814062252 -36.869317712168794 A40 40 0 0 1 -9.120954257850816 -38.946221811957486 L-9.120954257850816 -38.946221811957486 L-9.748125037456742 -44.91335318416712 L0.19709391622599637 -45.95863781684366 L0.824264695831922 -39.99150644463403 A40 40 0 0 1 7.508449188655568 -39.28897034514111 L7.508449188655568 -39.28897034514111 L9.362551154905251 -44.99530944291203 L18.87311631785679 -41.90513949916256 L17.019014351607108 -36.19880040139164 A40 40 0 0 1 22.839573558323917 -32.838298976559535 L22.839573558323917 -32.838298976559535 L26.854357196477064 -37.29716792942391 L34.28580545125101 -30.605861865835326 L30.271021813097864 -26.14699291297096 A40 40 0 0 1 34.221528168746175 -20.70958738835017 L34.221528168746175 -20.70958738835017 L39.70280091460178 -23.150007246804975 L43.77016734535979 -14.014552670378965 L38.28889459950418 -11.574132811924159 A40 40 0 0 1 39.68626966596886 -5.000000000000012 M0 -30A30 30 0 1 0 0 30 A30 30 0 1 0 0 -30" fill="#f16b55"></path></g></g> <g transform="translate(0 22) scale(0.4)"> <g transform="rotate(343.215)">
<animateTransform attributeName="transform" type="rotate" values="360;0" keyTimes="0;1" dur="2.5s" begin="-0.08333333333333333s" repeatCount="indefinite"></animateTransform><path d="M39.68626966596886 -5 L45.68626966596886 -5 L45.68626966596886 5 L39.68626966596886 5 A40 40 0 0 1 38.28889459950419 11.574132811924127 L38.28889459950419 11.574132811924127 L43.770167345359795 14.014552670378928 L39.702800914601795 23.15000724680494 L34.22152816874619 20.709587388350137 A40 40 0 0 1 30.271021813097875 26.146992912970937 L30.271021813097875 26.146992912970937 L34.28580545125102 30.6058618658353 L26.85435719647709 37.297167929423885 L22.839573558323938 32.83829897655952 A40 40 0 0 1 17.01901435160712 36.19880040139164 L17.01901435160712 36.19880040139164 L18.8731163178568 41.90513949916256 L9.362551154905262 44.99530944291203 L7.508449188655577 39.28897034514111 A40 40 0 0 1 0.8242646958319584 39.99150644463403 L0.8242646958319584 39.99150644463403 L0.19709391622603845 45.95863781684366 L-9.7481250374567 44.913353184167136 L-9.12095425785078 38.94622181195749 A40 40 0 0 1 -15.513007814062226 36.86931771216881 L-15.513007814062226 36.86931771216881 L-18.513007814062224 42.06547013487544 L-27.173261851906616 37.06547013487544 L-24.173261851906616 31.869317712168804 A40 40 0 0 1 -29.167940341653406 27.37208900003337 L-29.167940341653406 27.37208900003337 L-34.02204230790309 30.89880051378821 L-39.899894830827826 22.808630570038734 L-35.04579286457814 19.281919056283893 A40 40 0 0 1 -37.77947100175345 13.141977432170185 L-37.77947100175345 13.141977432170185 L-43.648356606156284 14.389447577076744 L-45.72747351433388 4.607971569738684 L-39.858587909931046 3.3605014248321248 A40 40 0 0 1 -39.858587909931046 -3.360501424832097 L-39.858587909931046 -3.360501424832097 L-45.72747351433388 -4.607971569738651 L-43.64835660615629 -14.389447577076712 L-37.77947100175346 -13.141977432170158 A40 40 0 0 1 -35.04579286457815 -19.281919056283886 L-35.04579286457815 -19.281919056283886 L-39.89989483082783 -22.808630570038723 L-34.0220423079031 -30.898800513788203 L-29.167940341653413 -27.372089000033363 A40 40 0 0 1 -24.173261851906638 -31.869317712168787 L-24.173261851906638 -31.869317712168787 L-27.173261851906638 -37.06547013487542 L-18.513007814062256 -42.065470134875426 L-15.513007814062252 -36.869317712168794 A40 40 0 0 1 -9.120954257850816 -38.946221811957486 L-9.120954257850816 -38.946221811957486 L-9.748125037456742 -44.91335318416712 L0.19709391622599637 -45.95863781684366 L0.824264695831922 -39.99150644463403 A40 40 0 0 1 7.508449188655568 -39.28897034514111 L7.508449188655568 -39.28897034514111 L9.362551154905251 -44.99530944291203 L18.87311631785679 -41.90513949916256 L17.019014351607108 -36.19880040139164 A40 40 0 0 1 22.839573558323917 -32.838298976559535 L22.839573558323917 -32.838298976559535 L26.854357196477064 -37.29716792942391 L34.28580545125101 -30.605861865835326 L30.271021813097864 -26.14699291297096 A40 40 0 0 1 34.221528168746175 -20.70958738835017 L34.221528168746175 -20.70958738835017 L39.70280091460178 -23.150007246804975 L43.77016734535979 -14.014552670378965 L38.28889459950418 -11.574132811924159 A40 40 0 0 1 39.68626966596886 -5.000000000000012 M0 -30A30 30 0 1 0 0 30 A30 30 0 1 0 0 -30" fill="#006beb"></path></g></g> <g transform="translate(28 4) scale(0.3)"> <g transform="rotate(16.7854)">
<animateTransform attributeName="transform" type="rotate" values="0;360" keyTimes="0;1" dur="2.5s" begin="-0.08333333333333333s" repeatCount="indefinite"></animateTransform><path d="M39.68626966596886 -5 L45.68626966596886 -5 L45.68626966596886 5 L39.68626966596886 5 A40 40 0 0 1 38.28889459950419 11.574132811924127 L38.28889459950419 11.574132811924127 L43.770167345359795 14.014552670378928 L39.702800914601795 23.15000724680494 L34.22152816874619 20.709587388350137 A40 40 0 0 1 30.271021813097875 26.146992912970937 L30.271021813097875 26.146992912970937 L34.28580545125102 30.6058618658353 L26.85435719647709 37.297167929423885 L22.839573558323938 32.83829897655952 A40 40 0 0 1 17.01901435160712 36.19880040139164 L17.01901435160712 36.19880040139164 L18.8731163178568 41.90513949916256 L9.362551154905262 44.99530944291203 L7.508449188655577 39.28897034514111 A40 40 0 0 1 0.8242646958319584 39.99150644463403 L0.8242646958319584 39.99150644463403 L0.19709391622603845 45.95863781684366 L-9.7481250374567 44.913353184167136 L-9.12095425785078 38.94622181195749 A40 40 0 0 1 -15.513007814062226 36.86931771216881 L-15.513007814062226 36.86931771216881 L-18.513007814062224 42.06547013487544 L-27.173261851906616 37.06547013487544 L-24.173261851906616 31.869317712168804 A40 40 0 0 1 -29.167940341653406 27.37208900003337 L-29.167940341653406 27.37208900003337 L-34.02204230790309 30.89880051378821 L-39.899894830827826 22.808630570038734 L-35.04579286457814 19.281919056283893 A40 40 0 0 1 -37.77947100175345 13.141977432170185 L-37.77947100175345 13.141977432170185 L-43.648356606156284 14.389447577076744 L-45.72747351433388 4.607971569738684 L-39.858587909931046 3.3605014248321248 A40 40 0 0 1 -39.858587909931046 -3.360501424832097 L-39.858587909931046 -3.360501424832097 L-45.72747351433388 -4.607971569738651 L-43.64835660615629 -14.389447577076712 L-37.77947100175346 -13.141977432170158 A40 40 0 0 1 -35.04579286457815 -19.281919056283886 L-35.04579286457815 -19.281919056283886 L-39.89989483082783 -22.808630570038723 L-34.0220423079031 -30.898800513788203 L-29.167940341653413 -27.372089000033363 A40 40 0 0 1 -24.173261851906638 -31.869317712168787 L-24.173261851906638 -31.869317712168787 L-27.173261851906638 -37.06547013487542 L-18.513007814062256 -42.065470134875426 L-15.513007814062252 -36.869317712168794 A40 40 0 0 1 -9.120954257850816 -38.946221811957486 L-9.120954257850816 -38.946221811957486 L-9.748125037456742 -44.91335318416712 L0.19709391622599637 -45.95863781684366 L0.824264695831922 -39.99150644463403 A40 40 0 0 1 7.508449188655568 -39.28897034514111 L7.508449188655568 -39.28897034514111 L9.362551154905251 -44.99530944291203 L18.87311631785679 -41.90513949916256 L17.019014351607108 -36.19880040139164 A40 40 0 0 1 22.839573558323917 -32.838298976559535 L22.839573558323917 -32.838298976559535 L26.854357196477064 -37.29716792942391 L34.28580545125101 -30.605861865835326 L30.271021813097864 -26.14699291297096 A40 40 0 0 1 34.221528168746175 -20.70958738835017 L34.221528168746175 -20.70958738835017 L39.70280091460178 -23.150007246804975 L43.77016734535979 -14.014552670378965 L38.28889459950418 -11.574132811924159 A40 40 0 0 1 39.68626966596886 -5.000000000000012 M0 -30A30 30 0 1 0 0 30 A30 30 0 1 0 0 -30" fill="#685c41"></path></g></g></g></svg>